<svg id="Group_30637" data-name="Group 30637" xmlns="http://www.w3.org/2000/svg" width="59.365" height="59.365" viewBox="0 0 59.365 59.365">
  <g id="Group_48" data-name="Group 48">
    <g id="Ellipse_16" data-name="Ellipse 16" fill="none" stroke="#fff" stroke-width="1">
      <ellipse cx="29.683" cy="29.683" rx="29.683" ry="29.683" stroke="none"/>
      <ellipse cx="29.683" cy="29.683" rx="29.183" ry="29.183" fill="none"/>
    </g>
  </g>
  <g id="instagram_2_" data-name="instagram (2)" transform="translate(15.421 15.422)">
    <g id="Group_11184" data-name="Group 11184" transform="translate(21.86 5.278)">
      <g id="Group_11183" data-name="Group 11183">
        <path id="Path_20410" data-name="Path 20410" d="M393.093,94.739a.692.692,0,1,0,.692.692A.693.693,0,0,0,393.093,94.739Z" transform="translate(-392.401 -94.739)" fill="#f6f08d"/>
      </g>
    </g>
    <g id="Group_11186" data-name="Group 11186" transform="translate(8.122 8.122)">
      <g id="Group_11185" data-name="Group 11185">
        <path id="Path_20411" data-name="Path 20411" d="M151.943,145.8a6.139,6.139,0,1,0,6.139,6.139A6.146,6.146,0,0,0,151.943,145.8Z" transform="translate(-145.804 -145.804)" fill="#f6f08d"/>
      </g>
    </g>
    <g id="Group_11188" data-name="Group 11188">
      <g id="Group_11187" data-name="Group 11187">
        <path id="Path_20412" data-name="Path 20412" d="M20.7,0H7.819A7.828,7.828,0,0,0,0,7.819V20.7a7.828,7.828,0,0,0,7.819,7.819H20.7A7.828,7.828,0,0,0,28.523,20.7V7.819A7.828,7.828,0,0,0,20.7,0ZM14.261,22.084a7.823,7.823,0,1,1,7.823-7.823A7.832,7.832,0,0,1,14.261,22.084ZM22.552,8.347A2.377,2.377,0,1,1,24.929,5.97,2.38,2.38,0,0,1,22.552,8.347Z" fill="#f6f08d"/>
      </g>
    </g>
  </g>
</svg>
