<svg xmlns="http://www.w3.org/2000/svg" xmlns:xlink="http://www.w3.org/1999/xlink" width="346.643" height="455.293" viewBox="0 0 346.643 455.293">
  <defs>
    <clipPath id="clip-path">
      <rect id="Rectangle_17" data-name="Rectangle 17" width="346.643" height="455.293" fill="#bf9c32"/>
    </clipPath>
  </defs>
  <g id="Group_29909" data-name="Group 29909" transform="translate(-498.977 -1406)">
    <g id="Group_29900" data-name="Group 29900" transform="translate(498.978 1406)">
      <g id="Group_29899" data-name="Group 29899" transform="translate(0)" clip-path="url(#clip-path)">
        <path id="Path_20424" data-name="Path 20424" d="M234.9,227.216A226.588,226.588,0,0,1,344.415,33.108,225.662,225.662,0,0,0,227.216.5C102,.5.5,102,.5,227.216S102,453.931,227.216,453.931a225.661,225.661,0,0,0,117.2-32.608A226.588,226.588,0,0,1,234.9,227.216" transform="translate(0.431 0.431)" fill="#bf9c32"/>
        <path id="Path_20425" data-name="Path 20425" d="M234.9,227.216A226.588,226.588,0,0,1,344.415,33.108,225.662,225.662,0,0,0,227.216.5C102,.5.5,102,.5,227.216S102,453.931,227.216,453.931a225.661,225.661,0,0,0,117.2-32.608A226.588,226.588,0,0,1,234.9,227.216Z" transform="translate(0.431 0.431)" fill="#bf9c32"/>
      </g>
    </g>
  </g>
</svg>
